<?xml version="1.0" encoding="UTF-8"?> <svg xmlns="http://www.w3.org/2000/svg" width="925" height="916" viewBox="0 0 925 916" fill="none"> <mask id="path-1-inside-1" fill="white"> <path d="M805.639 452.202C807.781 525.14 786.641 596.865 745.282 656.982C703.924 717.098 644.495 762.482 575.611 786.555C506.728 810.628 431.967 812.14 362.166 790.872C292.365 769.603 231.151 726.659 187.395 668.264C143.64 609.869 119.617 539.057 118.808 466.093C118 393.128 140.448 321.801 182.899 262.451C225.35 203.101 285.598 158.811 354.91 136.001C424.223 113.191 498.998 113.046 568.399 135.587L567.789 137.463C498.787 115.051 424.441 115.195 355.527 137.874C286.612 160.553 226.71 204.589 184.503 263.598C142.296 322.608 119.976 393.525 120.78 466.071C121.584 538.617 145.469 609.022 188.973 667.082C232.478 725.141 293.341 767.839 362.741 788.985C432.141 810.132 506.472 808.629 574.961 784.693C643.449 760.758 702.536 715.635 743.658 655.864C784.779 596.093 805.798 524.779 803.668 452.26L805.639 452.202Z"></path> </mask> <path d="M805.639 452.202C807.781 525.14 786.641 596.865 745.282 656.982C703.924 717.098 644.495 762.482 575.611 786.555C506.728 810.628 431.967 812.14 362.166 790.872C292.365 769.603 231.151 726.659 187.395 668.264C143.64 609.869 119.617 539.057 118.808 466.093C118 393.128 140.448 321.801 182.899 262.451C225.35 203.101 285.598 158.811 354.91 136.001C424.223 113.191 498.998 113.046 568.399 135.587L567.789 137.463C498.787 115.051 424.441 115.195 355.527 137.874C286.612 160.553 226.71 204.589 184.503 263.598C142.296 322.608 119.976 393.525 120.78 466.071C121.584 538.617 145.469 609.022 188.973 667.082C232.478 725.141 293.341 767.839 362.741 788.985C432.141 810.132 506.472 808.629 574.961 784.693C643.449 760.758 702.536 715.635 743.658 655.864C784.779 596.093 805.798 524.779 803.668 452.26L805.639 452.202Z" stroke="#CBFFB4" stroke-width="8" stroke-miterlimit="16" mask="url(#path-1-inside-1)"></path> <mask id="path-2-inside-2" fill="white"> <path d="M783.559 371.372C798.685 424.824 800.236 481.206 788.07 535.408C775.904 589.611 750.407 639.922 713.888 681.782C677.37 723.642 630.984 755.73 578.933 775.137C526.882 794.544 470.812 800.657 415.802 792.923C360.792 785.189 308.581 763.852 263.899 730.845C219.217 697.838 183.477 654.204 159.917 603.897C136.356 553.589 125.72 498.199 128.972 442.743C132.223 387.287 149.26 333.519 178.539 286.31L180.168 287.32C151.057 334.258 134.118 387.718 130.885 442.855C127.652 497.992 138.227 553.065 161.652 603.084C185.078 653.102 220.613 696.486 265.038 729.303C309.463 762.121 361.374 783.336 416.068 791.025C470.763 798.715 526.511 792.637 578.263 773.341C630.015 754.045 676.135 722.142 712.444 680.522C748.753 638.902 774.104 588.88 786.2 534.989C798.296 481.097 796.754 425.039 781.715 371.894L783.559 371.372Z"></path> </mask> <path d="M783.559 371.372C798.685 424.824 800.236 481.206 788.07 535.408C775.904 589.611 750.407 639.922 713.888 681.782C677.37 723.642 630.984 755.73 578.933 775.137C526.882 794.544 470.812 800.657 415.802 792.923C360.792 785.189 308.581 763.852 263.899 730.845C219.217 697.838 183.477 654.204 159.917 603.897C136.356 553.589 125.72 498.199 128.972 442.743C132.223 387.287 149.26 333.519 178.539 286.31L180.168 287.32C151.057 334.258 134.118 387.718 130.885 442.855C127.652 497.992 138.227 553.065 161.652 603.084C185.078 653.102 220.613 696.486 265.038 729.303C309.463 762.121 361.374 783.336 416.068 791.025C470.763 798.715 526.511 792.637 578.263 773.341C630.015 754.045 676.135 722.142 712.444 680.522C748.753 638.902 774.104 588.88 786.2 534.989C798.296 481.097 796.754 425.039 781.715 371.894L783.559 371.372Z" stroke="#CBFFB4" stroke-width="4" stroke-miterlimit="16" mask="url(#path-2-inside-2)"></path> <mask id="path-3-inside-3" fill="white"> <path d="M278.138 730.151C216.859 688.024 171.877 626.159 150.696 554.876C129.514 483.593 133.414 407.203 161.744 338.448C190.074 269.693 241.122 212.73 306.373 177.061C371.623 141.393 447.13 129.175 520.3 142.446C593.469 155.717 659.876 193.675 708.443 249.987C757.011 306.299 784.802 377.562 787.181 451.887C789.56 526.212 766.384 599.105 721.517 658.408C676.65 717.712 612.807 759.838 540.636 777.762L540.186 775.951C611.943 758.13 675.42 716.245 720.029 657.283C764.638 598.32 787.681 525.845 785.316 451.946C782.951 378.048 755.319 307.195 707.03 251.206C658.742 195.217 592.716 157.477 519.967 144.282C447.217 131.087 372.143 143.235 307.268 178.699C242.392 214.163 191.637 270.799 163.469 339.159C135.302 407.52 131.425 483.471 152.485 554.345C173.545 625.218 218.268 686.728 279.196 728.614L278.138 730.151Z"></path> </mask> <path d="M278.138 730.151C216.859 688.024 171.877 626.159 150.696 554.876C129.514 483.593 133.414 407.203 161.744 338.448C190.074 269.693 241.122 212.73 306.373 177.061C371.623 141.393 447.13 129.175 520.3 142.446C593.469 155.717 659.876 193.675 708.443 249.987C757.011 306.299 784.802 377.562 787.181 451.887C789.56 526.212 766.384 599.105 721.517 658.408C676.65 717.712 612.807 759.838 540.636 777.762L540.186 775.951C611.943 758.13 675.42 716.245 720.029 657.283C764.638 598.32 787.681 525.845 785.316 451.946C782.951 378.048 755.319 307.195 707.03 251.206C658.742 195.217 592.716 157.477 519.967 144.282C447.217 131.087 372.143 143.235 307.268 178.699C242.392 214.163 191.637 270.799 163.469 339.159C135.302 407.52 131.425 483.471 152.485 554.345C173.545 625.218 218.268 686.728 279.196 728.614L278.138 730.151Z" stroke="#FFE4BC" stroke-width="8" stroke-miterlimit="16" mask="url(#path-3-inside-3)"></path> <mask id="path-4-inside-4" fill="white"> <path d="M146.506 452.857C148.57 383.735 173.257 317.199 216.778 263.459C260.299 209.719 320.251 171.744 387.435 155.359C454.618 138.974 525.322 145.086 588.698 172.756C652.073 200.426 704.62 248.126 738.274 308.537C771.928 368.948 784.831 438.732 775.004 507.183C765.176 575.634 733.16 638.97 683.869 687.472C634.578 735.974 570.734 766.963 502.134 775.685C433.533 784.407 363.966 770.38 304.106 735.755L305.014 734.185C364.53 768.611 433.698 782.558 501.905 773.886C570.111 765.214 633.589 734.403 682.597 686.179C731.605 637.955 763.437 574.983 773.208 506.926C782.98 438.868 770.151 369.484 736.689 309.42C703.228 249.355 650.984 201.929 587.972 174.418C524.96 146.907 454.662 140.83 387.865 157.121C321.067 173.412 261.459 211.169 218.187 264.601C174.916 318.032 150.371 384.186 148.319 452.911L146.506 452.857Z"></path> </mask> <path d="M146.506 452.857C148.57 383.735 173.257 317.199 216.778 263.459C260.299 209.719 320.251 171.744 387.435 155.359C454.618 138.974 525.322 145.086 588.698 172.756C652.073 200.426 704.62 248.126 738.274 308.537C771.928 368.948 784.831 438.732 775.004 507.183C765.176 575.634 733.16 638.97 683.869 687.472C634.578 735.974 570.734 766.963 502.134 775.685C433.533 784.407 363.966 770.38 304.106 735.755L305.014 734.185C364.53 768.611 433.698 782.558 501.905 773.886C570.111 765.214 633.589 734.403 682.597 686.179C731.605 637.955 763.437 574.983 773.208 506.926C782.98 438.868 770.151 369.484 736.689 309.42C703.228 249.355 650.984 201.929 587.972 174.418C524.96 146.907 454.662 140.83 387.865 157.121C321.067 173.412 261.459 211.169 218.187 264.601C174.916 318.032 150.371 384.186 148.319 452.911L146.506 452.857Z" stroke="#FFE4BC" stroke-width="8" stroke-miterlimit="16" mask="url(#path-4-inside-4)"></path> <mask id="path-5-inside-5" fill="white"> <path d="M180.898 340.196C203.948 287.071 241.565 241.556 289.4 208.916C337.235 176.276 393.332 157.843 451.204 155.75C509.076 153.657 566.359 167.99 616.426 197.09C666.494 226.19 707.3 268.869 734.127 320.19C760.954 371.511 772.705 429.378 768.02 487.099C763.336 544.819 742.408 600.034 707.656 646.357C672.905 692.681 625.75 728.221 571.645 748.867C517.54 769.512 458.696 774.42 401.919 763.023L402.266 761.296C458.717 772.628 517.223 767.749 571.017 747.221C624.811 726.694 671.696 691.358 706.248 645.301C740.8 599.243 761.608 544.345 766.265 486.956C770.923 429.567 759.24 372.032 732.567 321.006C705.894 269.979 665.321 227.545 615.541 198.612C565.761 169.679 508.808 155.429 451.268 157.51C393.728 159.591 337.953 177.917 290.393 210.37C242.832 242.824 205.431 288.077 182.513 340.897L180.898 340.196Z"></path> </mask> <path d="M180.898 340.196C203.948 287.071 241.565 241.556 289.4 208.916C337.235 176.276 393.332 157.843 451.204 155.75C509.076 153.657 566.359 167.99 616.426 197.09C666.494 226.19 707.3 268.869 734.127 320.19C760.954 371.511 772.705 429.378 768.02 487.099C763.336 544.819 742.408 600.034 707.656 646.357C672.905 692.681 625.75 728.221 571.645 748.867C517.54 769.512 458.696 774.42 401.919 763.023L402.266 761.296C458.717 772.628 517.223 767.749 571.017 747.221C624.811 726.694 671.696 691.358 706.248 645.301C740.8 599.243 761.608 544.345 766.265 486.956C770.923 429.567 759.24 372.032 732.567 321.006C705.894 269.979 665.321 227.545 615.541 198.612C565.761 169.679 508.808 155.429 451.268 157.51C393.728 159.591 337.953 177.917 290.393 210.37C242.832 242.824 205.431 288.077 182.513 340.897L180.898 340.196Z" stroke="#E0E0E0" stroke-width="8" stroke-miterlimit="16" mask="url(#path-5-inside-5)"></path> <mask id="path-6-inside-6" fill="white"> <path d="M435.475 759.902C392.723 756.05 351.302 743.032 314.032 721.735C276.762 700.437 244.518 671.36 219.495 636.482C194.471 601.605 177.256 561.745 169.02 519.617C160.785 477.489 161.722 434.08 171.769 392.347C181.816 350.613 200.736 311.534 227.242 277.77C253.748 244.005 287.217 216.347 325.372 196.678C363.526 177.01 405.471 165.793 448.35 163.79C491.229 161.788 534.036 169.047 573.857 185.073L573.217 186.665C533.624 170.73 491.062 163.513 448.43 165.504C405.797 167.495 364.093 178.648 326.158 198.203C288.222 217.759 254.945 245.258 228.591 278.829C202.237 312.4 183.426 351.255 173.437 392.748C163.448 434.242 162.516 477.401 170.704 519.288C178.892 561.174 196.009 600.805 220.888 635.483C245.768 670.16 277.827 699.07 314.883 720.245C351.939 741.42 393.122 754.363 435.629 758.193L435.475 759.902Z"></path> </mask> <path d="M435.475 759.902C392.723 756.05 351.302 743.032 314.032 721.735C276.762 700.437 244.518 671.36 219.495 636.482C194.471 601.605 177.256 561.745 169.02 519.617C160.785 477.489 161.722 434.08 171.769 392.347C181.816 350.613 200.736 311.534 227.242 277.77C253.748 244.005 287.217 216.347 325.372 196.678C363.526 177.01 405.471 165.793 448.35 163.79C491.229 161.788 534.036 169.047 573.857 185.073L573.217 186.665C533.624 170.73 491.062 163.513 448.43 165.504C405.797 167.495 364.093 178.648 326.158 198.203C288.222 217.759 254.945 245.258 228.591 278.829C202.237 312.4 183.426 351.255 173.437 392.748C163.448 434.242 162.516 477.401 170.704 519.288C178.892 561.174 196.009 600.805 220.888 635.483C245.768 670.16 277.827 699.07 314.883 720.245C351.939 741.42 393.122 754.363 435.629 758.193L435.475 759.902Z" stroke="#E0E0E0" stroke-width="8" stroke-miterlimit="16" mask="url(#path-6-inside-6)"></path> </svg> 